# xmcd CD database file generated by Grip 3.2.0
# 
# Track frame offsets:
#       150
#       37727
#       58590
#       95680
#       115730
# 
# Disc length: 2767 seconds
# 
# Revision: 3
# Processed by: cddbd v1.5.1PL0 Copyright (c) Steve Scherf et al.
# Submitted via: Grip 3.2.0
# 
DISCID=360acd05
DTITLE=Jan Garbarek - Bobo Stenson Quartet - Witchi-Tai-To
DYEAR=1973
DGENRE=Jazz
TTITLE0=A. I. R.
TTITLE1=Kukka
TTITLE2=Hasta Siempre
TTITLE3=Witchi-Tai-To
TTITLE4=Desireless
EXTD=YEAR: 1973
EXTT0=
EXTT1=
EXTT2=
EXTT3=
EXTT4=
PLAYORDER=
